<svg width="196" height="6" viewBox="0 0 196 6" fill="none" xmlns="http://www.w3.org/2000/svg">
<mask id="mask0_328_502" style="mask-type:alpha" maskUnits="userSpaceOnUse" x="0" y="0" width="196" height="6">
<rect width="196" height="6" fill="#C4C4C4"/>
</mask>
<g mask="url(#mask0_328_502)">
<path d="M29.4401 -1.26895L29.9192 -1.34804L28.987 -1.46143L29.4338 -1.54443C29.8819 -1.54367 30.4625 -1.4193 30.7784 -1.48538C30.817 -1.54936 30.3291 -1.5699 30.2046 -1.62087C30.0944 -1.67312 30.0045 -1.72503 29.9359 -1.77598C30.1799 -1.77543 30.4482 -1.76311 30.7248 -1.73974C31.0969 -1.70156 31.4618 -1.683 31.7793 -1.68611C32.4287 -1.6758 33.056 -1.68609 33.7619 -1.68382L33.5271 -1.8378L34.4369 -1.80178C34.5333 -1.79005 34.6483 -1.80892 34.743 -1.7944C35.5315 -1.67162 35.8652 -1.73853 36.2437 -1.79401C36.3213 -1.80836 36.4148 -1.81908 36.5217 -1.82588C37.5735 -1.79647 38.522 -1.62436 39.4693 -1.536C39.6476 -1.51344 39.8186 -1.48449 39.9702 -1.45119C40.2997 -1.38645 40.6662 -1.33359 41.0362 -1.29745C41.4062 -1.26131 41.7678 -1.24305 42.0881 -1.24432C42.7963 -1.24576 43.5965 -1.20293 44.4111 -1.12001C44.6534 -1.09269 44.8958 -1.07468 45.1229 -1.0671C45.35 -1.05952 45.5569 -1.06255 45.7302 -1.07601L46.281 -0.988106C46.5197 -1.02377 46.8224 -1.04334 47.1708 -1.04562C47.5191 -1.04791 47.9058 -1.03286 48.3074 -1.00139C48.7354 -0.967246 49.17 -0.944231 49.614 -0.908136C50.5312 -0.839131 51.4239 -0.796929 52.2642 -0.782843C53.5156 -0.741097 54.7383 -0.708819 56.0008 -0.656772C56.7906 -0.63165 57.5601 -0.617833 58.3048 -0.615392C59.1968 -0.605566 60.1617 -0.557996 61.1529 -0.474978C61.1059 -0.397088 60.6712 -0.420099 60.3795 -0.422735C59.4385 -0.435681 58.4754 -0.469228 57.5072 -0.494429C57.0711 -0.504266 56.647 -0.507992 56.2373 -0.505579C55.5524 -0.508809 54.8304 -0.529563 54.0837 -0.567488C52.9041 -0.609217 51.7621 -0.629275 50.6695 -0.62746C50.5839 -0.624375 50.5054 -0.618908 50.4354 -0.61115C50.4208 -0.604432 50.4179 -0.595958 50.427 -0.586545C50.4362 -0.577133 50.457 -0.567091 50.4875 -0.557388C50.518 -0.547684 50.5571 -0.538643 50.6012 -0.531126C50.6454 -0.523608 50.6929 -0.517866 50.7394 -0.514455C51.1733 -0.461669 51.6394 -0.404975 52.0486 -0.397C52.0645 -0.396404 52.0813 -0.395043 52.098 -0.393014C52.1147 -0.390985 52.1307 -0.38834 52.1451 -0.38527C53.0612 -0.273833 53.8144 -0.292692 54.528 -0.274561C55.7128 -0.225562 56.855 -0.202673 57.9372 -0.206243C58.1007 -0.206 58.2773 -0.19963 58.4606 -0.187363C59.594 -0.137639 60.6539 -0.132077 61.5904 -0.17093C61.9759 -0.180774 62.3343 -0.202871 62.7486 -0.203241C63.0037 -0.204762 63.2258 -0.218863 63.4015 -0.2447C63.5772 -0.270538 63.7028 -0.307578 63.7709 -0.353592C63.9457 -0.329366 64.1232 -0.307775 64.3013 -0.289079C64.4076 -0.278388 64.5097 -0.275548 64.5867 -0.281142C64.6637 -0.286737 64.71 -0.300347 64.7163 -0.319219C64.7482 -0.372073 64.5054 -0.398616 64.2948 -0.421249C64.4218 -0.432585 64.5649 -0.439253 64.7208 -0.441094C65.5985 -0.453171 66.5398 -0.438917 67.5245 -0.398645C68.289 -0.35044 68.8992 -0.389675 69.7036 -0.321697C69.8 -0.309966 69.8794 -0.327184 69.9681 -0.331318C70.1996 -0.353087 70.4879 -0.357981 70.808 -0.345569C71.1282 -0.333157 71.4706 -0.303817 71.8056 -0.260091C72.2227 -0.379551 73.1237 -0.243078 73.7891 -0.230813C73.994 -0.170061 73.7589 -0.180742 73.7488 -0.164051C73.7388 -0.14736 73.7488 -0.164054 73.6685 -0.173829C73.0041 -0.087794 72.0939 -0.0690345 71.0656 -0.120186C70.8754 -0.119974 70.6942 -0.116053 70.5237 -0.108465C70.2655 -0.097724 69.9743 -0.0987965 69.663 -0.111636C69.3229 -0.121066 69.0104 -0.116587 68.7407 -0.0984165C68.5855 -0.098712 68.4543 -0.0896101 68.3592 -0.0719471C68.2641 -0.0542842 68.2082 -0.0286332 68.1967 0.0026217C68.3003 0.0267162 68.4152 0.0487631 68.5369 0.067887C69.1721 0.143396 69.8056 0.174652 70.3127 0.155503C71.1952 0.122511 72.2454 0.154705 73.1837 0.143442C73.8181 0.13888 74.4931 0.151878 75.1961 0.182191C75.1961 0.182191 75.1776 0.212791 75.1759 0.215572C75.259 0.228821 75.3464 0.23945 75.4331 0.246853C75.4331 0.246853 75.4331 0.246853 75.4415 0.232944C75.4029 0.219587 75.3507 0.207022 75.2908 0.196703L75.0819 0.171287C75.2239 0.164673 75.3566 0.144981 75.5046 0.157013C75.8164 0.179366 76.1144 0.188802 76.3807 0.184762C76.647 0.180722 76.8761 0.163286 77.0541 0.133501C77.3697 0.0953275 77.7622 0.0779668 78.2062 0.0825418C78.5465 0.078375 78.8745 0.0694176 79.1885 0.0557152C79.1885 0.0557152 79.2087 0.0223375 79.3574 0.0045963C79.2166 -0.0172851 79.0697 -0.0351529 78.9235 -0.0481872C78.2876 -0.0807515 77.65 -0.110535 77.0251 -0.132799C76.7949 -0.135204 76.5785 -0.131473 76.3801 -0.12168C75.8303 -0.110221 75.2126 -0.126485 74.563 -0.169526C74.563 -0.169526 74.4344 -0.185165 74.3701 -0.192986C74.5524 -0.266362 75.1809 -0.192904 75.4351 -0.242597C75.5898 -0.241692 75.8621 -0.235443 75.8528 -0.248525C75.8316 -0.265982 75.8291 -0.2822 75.8454 -0.296014C75.8617 -0.309829 75.8965 -0.320898 75.9472 -0.328429C75.9979 -0.335959 76.0633 -0.339767 76.1387 -0.339574C76.2141 -0.33938 76.2977 -0.33519 76.3834 -0.32731C77.0988 -0.284678 77.7726 -0.272822 78.3636 -0.292469C78.5876 -0.292089 78.8388 -0.279455 79.0611 -0.276293C79.1973 -0.272486 79.3215 -0.274604 79.4272 -0.28253C79.9644 -0.340901 80.6874 -0.345163 81.4875 -0.294678C81.8741 -0.276527 82.2354 -0.274099 82.5527 -0.287519C82.7785 -0.289922 82.8742 -0.248421 83.0349 -0.228871L83.7174 -0.187659L82.8409 -0.136019C83.0282 -0.0176771 83.1772 0.0213446 83.4833 0.0287169C83.9298 0.0398506 84.3646 0.0448799 84.7853 0.0437749C85.0965 0.0428021 85.3533 0.0173168 85.7746 0.0625838C85.849 0.0699676 85.9207 0.0723567 85.9775 0.0693516C86.4708 0.0291646 87.0648 0.0199417 87.719 0.0423123C88.0577 -0.0329415 88.6346 0.0402249 89.1684 0.0991771C89.3406 0.0424911 89.0285 0.0164706 88.8423 -0.0181174C89.2887 -0.0145763 89.7385 -0.0165981 90.1993 -0.00832105C90.3379 -0.0113339 90.4964 -0.00618034 90.6622 0.00673592C90.828 0.0196531 90.9967 0.0399786 91.155 0.0661225C91.2322 0.0830156 91.3252 0.0957295 91.4148 0.101625C91.5044 0.10752 91.5837 0.106145 91.6362 0.0977843C91.8754 0.0731279 92.2584 0.0958376 92.4561 0.0541886C92.5263 0.0446106 92.6268 0.0432728 92.7394 0.0504103C92.8521 0.0575487 92.9696 0.0727006 93.0709 0.0931481C92.96 0.0995278 92.8612 0.109574 92.7768 0.123066C92.4744 0.166894 92.5854 0.240125 92.9697 0.346591C93.5598 0.340737 94.1626 0.342398 94.7096 0.322333C95.0144 0.30432 95.388 0.309952 95.7882 0.338593C96.1885 0.367236 96.5995 0.417753 96.9752 0.484463C97.1112 0.510116 97.2661 0.527883 97.4093 0.534237C97.5525 0.540591 97.6735 0.535067 97.7481 0.518757C97.7945 0.499896 97.809 0.476024 97.7901 0.449213L97.4043 0.402294C97.4043 0.402294 97.4194 0.377258 97.4228 0.371694L97.9774 0.367488C98.2707 0.367343 98.5768 0.374716 98.8541 0.372615C99.2615 0.358644 99.7264 0.366431 100.22 0.395495C100.676 0.425299 101.124 0.447826 101.56 0.462878C101.982 0.478373 102.288 0.42898 102.689 0.421091C102.993 0.415145 103.327 0.421499 103.679 0.439906C104.286 0.472549 104.843 0.47261 105.3 0.440081C105.833 0.615342 106.091 0.643838 106.586 0.59648L106.818 0.582952L106.882 0.620543L107.059 0.612276C107.392 0.604913 107.724 0.597554 108.07 0.594928C108.552 0.611192 109.073 0.654952 109.581 0.721933C109.677 0.733662 109.809 0.773516 109.893 0.804719C109.978 0.835921 110.163 0.930051 110.298 0.991329C110.151 1.03606 109.987 1.07884 109.869 1.13026C109.858 1.13905 109.859 1.14952 109.873 1.16085C109.887 1.17217 109.913 1.18403 109.95 1.19547C109.987 1.2069 110.033 1.2176 110.084 1.2267C110.136 1.2358 110.192 1.24304 110.247 1.24786C110.355 1.25822 110.462 1.26514 110.562 1.26831C111.059 1.27378 111.535 1.26972 111.984 1.25615C112.149 1.23702 112.374 1.2352 112.623 1.25099C112.873 1.26678 113.134 1.29927 113.364 1.34331C113.952 1.31687 114.636 1.32468 115.368 1.3662C116.143 1.34095 117.078 1.39201 117.801 1.33669C117.785 1.36451 117.859 1.4124 117.963 1.43999C118.128 1.48191 118.315 1.52075 118.515 1.55488L120.045 1.62152C120.102 1.65578 120.173 1.69047 120.258 1.72512C120.316 1.7525 120.418 1.77929 120.541 1.79981C120.663 1.82033 120.798 1.83297 120.917 1.83506C121.221 1.84521 121.476 1.82251 121.839 1.8786C121.28 1.93162 120.526 1.92458 119.712 1.85872C118.947 1.80863 118.211 1.7836 117.531 1.78455C117.307 1.78417 117.012 1.7871 116.942 1.8174C116.787 1.90303 116.381 1.88949 115.907 1.8737C115.535 1.85641 115.196 1.85834 114.916 1.87936C114.636 1.90037 114.425 1.93986 114.299 1.99456C114.267 2.04742 114.343 2.09253 114.67 2.12329L116.027 2.24661C116.228 2.23076 116.417 2.21199 116.596 2.19038C116.897 2.16169 117.269 2.15381 117.683 2.16737C118.097 2.18092 118.541 2.21554 118.982 2.26854C119.207 2.29591 119.432 2.32328 119.595 2.31027C119.738 2.29533 119.87 2.27745 119.989 2.25675C120.013 2.24287 120.023 2.2269 120.018 2.20945C120.104 2.21757 120.191 2.22812 120.275 2.24074C120.945 2.38796 121.464 2.38541 121.936 2.34722C122.063 2.33587 122.161 2.31783 122.29 2.3037C122.419 2.28956 122.465 2.27122 122.582 2.27656C123.519 2.32484 123.789 2.16358 124.579 2.17005C124.617 2.16375 124.641 2.15434 124.648 2.14267C124.655 2.131 124.645 2.11746 124.619 2.10329C124.563 2.0905 124.499 2.0795 124.431 2.0713C124.364 2.0631 124.296 2.05797 124.233 2.05637C123.87 2.03568 123.549 2.04202 123.325 2.07432C123.167 2.08752 122.999 2.09804 122.823 2.10582L122.033 1.87228C122.799 1.89369 123.523 1.89355 124.189 1.87187C124.335 1.85969 124.581 1.88067 124.785 1.88466L126.29 1.90648C126.6 1.90829 126.864 1.87168 127.295 1.95702C127.295 1.95702 127.58 1.97078 127.656 1.95913C127.732 1.94748 128.069 1.87501 128.27 1.8278C128.504 1.84126 128.827 1.87758 128.972 1.8654C129.226 1.83549 129.446 1.79714 129.628 1.75105L130.537 1.81685C130.536 1.8753 130.503 1.93029 130.438 1.98098C130.367 2.02986 130.369 2.08854 130.445 2.15222C130.52 2.2159 130.667 2.28276 130.872 2.34736L131.77 2.68946C131.916 2.71237 132.073 2.72779 132.217 2.73363C132.362 2.73947 132.488 2.73544 132.578 2.7221C132.964 2.68248 133.397 2.65151 133.783 2.6119C134.282 2.6725 134.154 2.77039 134.516 2.85626L135.689 2.99897C135.868 3.13122 136.05 3.25791 135.506 3.30218C135.398 3.30993 135.471 3.3606 135.372 3.38143C135.795 3.48068 136.26 3.51039 136.689 3.57152C136.858 3.61548 137 3.66202 137.107 3.70888C137.224 3.77944 137.462 3.85152 137.769 3.90955C138.076 3.96758 138.428 4.00691 138.748 4.01904C139.285 4.05619 139.835 4.11199 140.374 4.18394C140.558 4.20896 140.747 4.22719 140.928 4.2374C141.109 4.24761 141.279 4.24956 141.425 4.24313C141.946 4.2318 142.387 4.19284 142.719 4.12879C143.047 4.07444 143.49 4.04824 144.007 4.05257C144.891 4.1601 145.069 4.32213 145.604 4.46483L144.68 4.48083C144.647 4.53647 144.708 4.60661 144.329 4.60533C143.95 4.60405 144.142 4.65728 144.265 4.71104C144.308 4.73808 144.393 4.7659 144.504 4.78978C144.616 4.81366 144.747 4.83214 144.876 4.84209L145.663 4.9109C145.942 4.93709 146.212 4.94827 146.443 4.94322C146.674 4.93817 146.858 4.91708 146.974 4.88227C147.107 4.84922 147.291 4.82687 147.514 4.81658C147.798 4.78961 148.032 4.74951 148.207 4.69779L149.317 4.77315C149.364 4.72117 149.517 4.68473 149.749 4.66998C149.981 4.65523 150.278 4.66307 150.591 4.69219L151.339 4.73844C152.171 4.7889 152.354 4.77229 152.598 4.62576L151.6 4.36403C151.745 4.29509 151.885 4.23449 152.025 4.17389C151.776 4.08766 151.444 4.00611 151.063 3.9375C150.708 3.86379 150.342 3.79239 149.968 3.72359C149.561 3.65329 149.133 3.59215 148.628 3.5129C148.54 3.48727 148.412 3.44185 148.249 3.39809C148.086 3.35556 147.915 3.31388 147.738 3.2732C147.771 3.21757 147.802 3.16749 147.737 3.10291C148.048 3.12352 148.368 3.15956 148.671 3.20779C148.973 3.25602 149.247 3.31491 149.468 3.37916C149.505 3.39056 149.551 3.40126 149.602 3.41055C149.653 3.41984 149.708 3.4275 149.763 3.433C150.309 3.47248 150.57 3.55496 150.836 3.65608C151.016 3.70778 151.248 3.75369 151.499 3.78744C151.981 3.84609 152.453 3.92143 152.914 3.98647C153.055 4.00815 153.202 4.02599 153.348 4.03926C153.83 4.08145 154.315 4.14045 154.779 4.21326C154.93 4.23176 155.075 4.25625 155.202 4.28467C155.329 4.3131 155.434 4.34463 155.508 4.37664C155.393 4.41171 155.331 4.45598 155.326 4.50678C155.306 4.54016 155.644 4.60821 155.804 4.65754C155.964 4.70686 155.651 4.68362 155.544 4.68858C155.107 4.69812 155.026 4.71812 155.288 4.82759C155.375 4.86201 155.433 4.89646 155.458 4.92878C155.483 4.9611 155.475 4.99061 155.433 5.01548C155.371 5.11841 155.182 5.20291 155.052 5.30358C155.254 5.3699 155.591 5.44072 155.627 5.52282C155.645 5.54103 155.682 5.56033 155.736 5.57932C155.791 5.5983 155.86 5.6165 155.941 5.63259C156.152 5.66734 156.345 5.70889 156.503 5.75403C156.661 5.79917 156.781 5.84669 156.853 5.8929C156.877 5.91201 156.934 5.93228 157.013 5.94966C157.092 5.96704 157.187 5.98023 157.28 5.98659C157.39 5.9944 157.489 5.99337 157.556 5.98371C157.622 5.97406 157.652 5.95651 157.639 5.93471C157.641 5.89375 157.627 5.85105 157.595 5.80697C157.614 5.77638 157.632 5.74578 157.559 5.6951C157.888 5.71359 158.234 5.75066 158.559 5.80226C158.884 5.85387 159.175 5.91805 159.401 5.98782C159.651 6.06 159.881 6.13579 160.158 6.22023C160.101 6.31481 160.101 6.31481 160.69 6.48202L163.815 6.56357L164.455 6.67433C165.053 6.77087 165.195 6.76426 165.57 6.71434L165.822 6.66742C166.353 6.73194 166.964 6.80623 167.295 6.68534C167.403 6.76414 167.473 6.7906 167.449 6.80256C167.291 6.91884 167.015 7.0175 166.634 7.09464C166.537 7.11268 166.469 7.14019 166.356 7.15628C165.991 7.24708 165.906 7.3874 166.119 7.54851C166.225 7.61981 166.378 7.69282 166.575 7.7652C166.287 7.86563 165.906 7.94884 165.442 8.01261C165.048 8.06194 164.724 8.128 164.478 8.2089C164.258 8.29047 163.928 8.35178 163.507 8.38933C163.293 8.40529 163.138 8.43678 163.055 8.48067C163.03 8.59948 163.087 8.72669 163.223 8.85945C163.249 8.89985 163.322 8.94349 163.436 8.98694C163.551 9.03039 163.704 9.07248 163.883 9.1099C163.883 9.1099 163.969 9.13832 164.011 9.15531C164.045 9.29918 163.916 9.42598 163.631 9.52716C163.584 9.55588 163.489 9.57662 163.355 9.58715C163.221 9.59768 163.053 9.5976 162.87 9.58693C162.484 9.56978 162.123 9.56767 161.749 9.55804C161.347 9.54442 160.992 9.55515 160.722 9.58911C160.453 9.62307 160.279 9.679 160.218 9.75101C160.214 9.77141 160.202 9.79092 160.183 9.80943C160.172 9.81897 160.165 9.82921 160.164 9.84003L161.023 10.0758L160.052 10.1697C159.995 10.2643 160.461 10.321 160.694 10.3912L160.55 10.4304C160.364 10.4526 160.114 10.4101 159.887 10.3856L159.662 10.3582L159.635 10.4027C159.495 10.4633 158.984 10.3952 158.785 10.4396C158.585 10.484 158.728 10.5342 159.026 10.5825C159.234 10.6183 159.457 10.6469 159.678 10.6661C159.9 10.6853 160.114 10.6946 160.305 10.6932C160.419 10.6885 160.514 10.6776 160.583 10.6613C160.986 10.592 161.431 10.5324 161.916 10.483C162.287 10.4386 162.752 10.4198 163.277 10.4277C163.432 10.4244 163.618 10.4349 163.803 10.4574C163.988 10.4799 164.161 10.513 164.29 10.5509L164.562 10.5571C164.562 10.5571 164.711 10.5961 164.69 10.6025C164.586 10.7181 164.707 10.8595 165.033 11.0056L164.749 11.0188C164.344 11.0053 164.601 11.0933 164.54 11.1367C164.252 11.1285 163.877 11.0919 163.74 11.1469L163.536 11.1429L163.616 11.1527L163.713 11.1347L164.095 11.2169C163.914 11.2308 163.783 11.2477 163.623 11.2551C163.535 11.2616 163.465 11.273 163.417 11.2887C163.369 11.3044 163.344 11.3241 163.344 11.3465C163.344 11.381 163.297 11.4101 163.206 11.4309C163.115 11.4517 162.983 11.4636 162.824 11.4654C162.634 11.4661 162.525 11.5037 162.413 11.517L162.898 11.7431C162.898 11.7431 162.657 11.7138 162.788 11.7536L162.805 11.7258L163.098 11.7824C163.31 11.8321 163.458 11.8441 163.583 11.8085C163.708 11.773 163.679 11.8203 163.739 11.8067C163.717 11.8428 163.581 11.8681 163.465 11.8897C163.33 11.9067 163.178 11.9193 163.011 11.9271C163.312 12.0861 163.326 12.0909 162.887 12.1329C162.447 12.175 162.599 12.2383 162.231 12.2473C161.863 12.2563 162.282 12.3639 162.528 12.3849C162.71 12.3987 162.896 12.4202 163.073 12.4479C163.25 12.4756 163.413 12.5088 163.552 12.5453L163.478 12.6677C163.37 12.6576 163.262 12.6444 163.157 12.6286C162.801 12.5614 162.477 12.4981 162.16 12.5372L162.311 12.6302L161.205 12.5763C161.233 12.646 161.402 12.7254 161.675 12.7977C161.634 12.8374 161.608 12.8793 161.599 12.9229C161.581 12.9535 161.472 12.9342 161.401 12.9375C161.147 12.9427 160.939 12.9634 160.795 12.9979C160.651 13.0325 160.575 13.0797 160.574 13.1356C160.545 13.1829 160.935 13.281 161.178 13.2778C161.786 13.2872 162.443 13.3236 163.115 13.3849C163.524 13.3929 163.582 13.2685 164.255 13.3534C164.268 13.4109 164.182 13.4573 164.009 13.4859C163.836 13.5144 163.586 13.5234 163.297 13.5116C163.462 13.6391 164.373 13.6724 164.413 13.8057C164.186 13.7963 163.944 13.7741 163.709 13.7414C163.475 13.7087 163.257 13.6666 163.077 13.6192C163.038 13.6075 162.989 13.5968 162.935 13.5879C162.881 13.579 162.823 13.5724 162.767 13.5685C162.71 13.5647 162.658 13.5637 162.614 13.5658C162.569 13.5679 162.535 13.573 162.513 13.5805C162.64 13.6287 162.779 13.6844 162.937 13.7365C163.095 13.7887 163.133 13.8112 163.248 13.8221C164.099 13.9257 164.504 14.1123 165.241 14.2348C165.434 14.2583 165.458 14.3329 165.291 14.3244C165.131 14.316 164.987 14.3171 164.874 14.3276C164.761 14.3381 164.684 14.3577 164.651 14.384C164.527 14.4147 164.373 14.4391 164.193 14.4567C164.949 14.6482 165.85 14.8174 166.812 14.9484C166.994 14.9743 167.184 14.9901 167.354 14.9935C167.891 14.9937 168.461 15.0089 169.052 15.0388C169.261 15.0469 169.455 15.0461 169.622 15.0365C170.171 15.0137 170.607 15.0637 171.005 15.2046L171.663 15.4281C171.642 15.4643 171.531 15.5046 171.446 15.5599L171.96 15.6792L175.887 15.4044L176.675 15.6705L177.806 15.6557C177.892 15.6634 177.979 15.674 178.063 15.687C178.291 15.7655 178.47 15.841 178.718 15.916C178.966 15.991 179.409 16.0001 179.718 16.0884C180.027 16.1767 180.337 16.1786 180.719 16.231C180.755 16.2994 180.718 16.361 180.61 16.4119C180.575 16.4703 180.38 16.5064 180.347 16.562C180.351 16.6182 180.278 16.666 180.137 16.7009C179.995 16.7358 179.789 16.7568 179.536 16.762C178.829 16.8817 177.976 16.9669 177.003 17.0152C176.917 17.0187 176.846 17.0267 176.794 17.0389C176.743 17.0511 176.711 17.0671 176.701 17.086C176.702 17.1405 176.638 17.1877 176.511 17.224C176.385 17.2603 176.2 17.2848 175.971 17.2957C175.91 17.2979 175.864 17.3048 175.838 17.3154C175.751 17.3223 175.688 17.3354 175.654 17.3536C175.62 17.3718 175.618 17.3943 175.646 17.4191C175.675 17.4439 175.733 17.47 175.816 17.495C175.899 17.52 176.004 17.543 176.121 17.5618C176.29 17.5921 176.462 17.621 176.638 17.6486C176.628 17.6653 176.453 17.668 176.479 17.683C176.548 17.731 176.564 17.776 176.525 17.8143C176.487 17.8527 176.396 17.8835 176.259 17.9041L177.198 18.293C177.767 18.3468 178.326 18.4382 178.768 18.5497C178.769 18.5679 178.743 18.5833 178.694 18.5941C178.645 18.6049 178.575 18.6108 178.489 18.6113C178.26 18.6193 178.044 18.6348 177.797 18.6436C177.646 18.6501 177.521 18.6646 177.428 18.6861C177.335 18.7076 177.276 18.7357 177.256 18.7688L177.807 18.9135C177.63 18.9487 177.499 18.9657 177.383 18.9873C177.449 19.0328 177.562 19.0798 177.715 19.1247C177.867 19.1697 178.054 19.2113 178.261 19.2465C178.317 19.2537 178.373 19.259 178.428 19.2621C178.482 19.2651 178.534 19.2658 178.578 19.2642C179.005 19.2145 179.504 19.3021 179.989 19.385C180.474 19.4679 180.737 19.5178 181.095 19.5822L181.78 19.5909C181.953 19.6214 182.108 19.6573 182.231 19.6956C182.355 19.734 182.444 19.7738 182.492 19.8119C182.455 19.873 182.13 19.8395 181.936 19.8458C181.477 19.8839 180.873 19.8758 180.225 19.8228C180.064 19.8032 179.9 19.819 179.743 19.8209C179.406 19.8285 179.082 19.8409 178.772 19.858C178.568 19.874 178.378 19.8937 178.202 19.917C178.155 19.9949 178.895 20.0551 178.475 20.0936C178.619 20.1112 178.674 20.1357 178.748 20.1268C179.224 20.1774 179.694 20.2024 180.102 20.1989C180.885 20.1882 181.774 20.2237 182.696 20.3025C183.692 20.3842 184.647 20.4184 185.482 20.4025C185.8 20.4016 186.156 20.4183 186.522 20.4514C186.955 20.4973 187.384 20.5261 187.782 20.536C187.914 20.5364 188.061 20.5442 188.211 20.5588C188.361 20.5734 188.51 20.5945 188.646 20.6202C188.634 20.6396 188.505 20.6538 188.534 20.6633C188.946 20.809 189.113 20.9607 189.748 21.1096C190.182 21.1623 190.68 21.223 190.964 21.153C191.248 21.083 191.146 21.0228 190.581 20.8436C190.704 20.8411 190.852 20.8494 190.998 20.8673C191.145 20.8852 191.282 20.9114 191.385 20.9414L191.873 21.0755L192.314 21.2037C192.275 21.2676 192.245 21.3177 192.213 21.3706C192.162 21.4267 192.218 21.495 192.371 21.566C192.463 21.6047 192.544 21.6434 192.612 21.6818C192.887 21.8354 192.966 21.9805 192.842 22.101C192.603 22.2742 192.27 22.4335 191.847 22.5772C191.4 22.7169 191.156 22.8932 190.788 23.0456C190.6 23.1149 190.372 23.1771 190.107 23.2314C189.602 23.3522 189.05 23.4672 188.544 23.5908C188.038 23.7144 187.467 23.8031 186.905 23.905C186.069 24.0259 185.165 24.1303 184.198 24.2176C183.6 24.2942 182.985 24.3688 182.432 24.4567C181.778 24.5559 181.011 24.6271 180.148 24.6685C179.386 24.7182 178.705 24.7916 178.118 24.8874C178.056 24.8978 178.008 24.911 177.974 24.9266C177.868 25.0243 177.572 25.0932 177.131 25.1227C177.157 25.1513 177.192 25.1804 177.233 25.2098C177.295 25.2449 177.307 25.2777 177.27 25.3041C177.232 25.3304 177.147 25.349 177.023 25.3575C176.671 25.3817 176.377 25.4228 176.157 25.479C176.075 25.4931 176.025 25.5136 176.01 25.5388C175.995 25.564 176.015 25.5931 176.069 25.6236C176.117 25.655 176.121 25.684 176.079 25.7066C176.038 25.7293 175.954 25.7446 175.837 25.7507C175.539 25.7804 175.219 25.8043 174.88 25.8223C174.158 25.8619 173.32 25.8615 172.414 25.8209C172.317 25.8092 172.22 25.8272 172.108 25.8135C171.467 25.7681 170.872 25.7611 170.395 25.7933C169.835 25.8058 169.25 25.8034 168.66 25.8092C167.807 25.8053 167.021 25.8292 166.322 25.8802C165.524 25.8309 165.076 25.9167 164.402 25.9183C163.78 25.9271 163.19 25.9483 162.638 25.9815C161.749 26.0256 160.863 26.0642 159.987 26.1158C159.165 26.1405 158.408 26.1875 157.728 26.2562C157.468 26.2872 156.997 26.2389 156.82 26.3039C156.643 26.3689 156.285 26.3612 155.996 26.3828L155.084 26.4361C154.927 26.4488 154.755 26.4568 154.569 26.4601C153.721 26.4644 153.134 26.5513 152.347 26.569L152.266 26.5592C150.869 26.6883 149.27 26.7591 147.516 26.7697C146.492 26.8093 145.371 26.8074 144.284 26.8364C144.025 26.8944 143.412 26.8229 143.087 26.8759C142.762 26.9289 142.231 26.8942 141.812 26.9029C141.392 26.9116 140.982 26.9334 140.534 26.9326C140.145 26.9329 139.817 26.9566 139.578 27.0015C139.035 27.0758 138.372 27.1194 137.62 27.1305C136.625 27.1499 135.684 27.1937 134.672 27.184C134.687 27.2382 134.625 27.2842 134.492 27.3175C134.36 27.3507 134.162 27.3699 133.92 27.3732C132.838 27.3938 131.856 27.4477 130.76 27.4636L130.467 27.4637L127.187 27.4948C126.304 27.5008 125.452 27.5107 124.551 27.5175C124.214 27.4765 124.205 27.5472 123.972 27.5337C123.907 27.4989 123.83 27.4835 123.715 27.5024L123.69 27.5441L119.947 27.5995C118.482 27.64 116.941 27.6521 115.336 27.6358C114.956 27.6399 114.601 27.6537 114.276 27.6771C113.976 27.6856 113.662 27.6894 113.338 27.6883C112.899 27.6778 112.471 27.6725 112.054 27.6725C110.957 27.6884 109.807 27.6798 108.606 27.6681C107.405 27.6564 106.496 27.6772 105.427 27.6756C104.703 27.6741 103.983 27.6672 103.234 27.6507C102.876 27.643 102.436 27.6013 102.065 27.5861C101.695 27.5709 101.574 27.5712 101.525 27.5951C101.364 27.6621 100.959 27.6188 100.635 27.6122C100.003 27.6011 99.9135 27.5782 99.742 27.4051L100.517 27.35C100.707 27.3323 100.946 27.3292 101.211 27.341C101.475 27.3528 101.757 27.3792 102.029 27.4175C102.136 27.434 102.248 27.4469 102.358 27.4557C102.468 27.4645 102.574 27.4689 102.671 27.4687C103.453 27.4593 104.224 27.4396 104.975 27.4236L105.085 27.413L105.092 27.2586C104.993 27.2435 104.89 27.2309 104.787 27.2215L101.017 27.1213C100.152 27.0967 99.2542 27.0412 98.4053 27.0185C97.5564 26.9959 97.0989 26.982 96.4402 26.9586C96.1622 26.9453 95.8788 26.9278 95.592 26.9062C95.6086 26.8914 95.6182 26.8755 95.6206 26.8589C95.6357 26.8339 95.6558 26.8005 95.5339 26.7738C95.401 26.736 95.2233 26.7037 95.0364 26.6834C94.8608 26.67 94.6906 26.6624 94.5324 26.6609C93.768 26.648 92.8948 26.5664 92.0991 26.4336L91.8213 26.5222C90.6265 26.4724 89.4139 26.4235 88.1658 26.3761C87.9159 26.3632 87.6536 26.3385 87.3987 26.3037C87.1254 26.2705 86.8741 26.2011 86.5864 26.1631C86.3022 26.1358 86.02 26.1145 85.7449 26.0996C85.8194 26.0768 85.9176 26.0585 86.0364 26.0455C86.1533 26.0409 86.2384 26.0266 86.2795 26.0048C86.3206 25.9829 86.3156 25.9546 86.265 25.924C86.176 25.8713 86.1369 25.8218 86.3304 25.8155C86.5093 25.8035 86.6373 25.7775 86.6992 25.7406C86.7612 25.7037 86.7547 25.6574 86.6803 25.6072C86.6478 25.5779 86.6248 25.5491 86.6115 25.5212L86.5311 25.5114C86.266 25.4075 85.7367 25.37 85.3567 25.285C85.1773 25.2603 84.9917 25.2461 84.8289 25.2447C84.4087 25.2264 83.9994 25.2184 83.5648 25.1954C83.3572 25.1848 83.1401 25.1655 82.9262 25.1386C82.6208 25.1015 82.5887 25.0976 82.4114 24.9625C82.6867 24.9649 82.905 24.9447 83.0293 24.9054C83.1536 24.8661 83.1764 24.8101 83.0936 24.7469C82.8664 24.6088 82.6265 24.4632 81.5988 24.365C81.9339 24.3602 82.2565 24.3506 82.565 24.3363C82.6548 24.3332 82.722 24.323 82.7577 24.3072C82.7934 24.2913 82.7958 24.2705 82.7646 24.2476C82.7334 24.2246 82.6701 24.2006 82.5832 24.1787C82.4963 24.1569 82.39 24.1382 82.2784 24.1252C81.736 24.0471 81.1701 23.9948 80.6443 23.9742C80.2013 23.9651 79.8014 23.9702 79.284 23.97L78.6732 23.8957C78.6833 23.879 78.5936 23.8561 78.6164 23.847C78.7715 23.7613 78.9428 23.6777 79.1191 23.5856C78.8375 23.5359 78.5936 23.476 78.4152 23.4125C78.2369 23.3491 78.1313 23.2848 78.1106 23.2271C78.0954 23.2096 78.0993 23.1938 78.1222 23.1805C78.1451 23.1673 78.1863 23.1571 78.243 23.1506C78.4037 23.1394 78.5279 23.1181 78.6057 23.0882C78.6836 23.0583 78.7131 23.0207 78.692 22.9783L78.217 22.822C76.787 22.7105 75.3827 22.6308 74.0302 22.5844L72.8092 22.5494C72.6619 22.5076 72.7075 22.4892 72.8461 22.4882C72.9848 22.4871 73.3746 22.4987 73.6468 22.5049C73.882 22.5131 74.0908 22.5078 74.253 22.4893C74.4153 22.4708 74.5255 22.44 74.573 22.3996L74.163 22.2214C74.1832 22.188 74.2117 22.1407 74.434 22.1438C74.586 22.14 74.6979 22.1232 74.7518 22.0961C74.8057 22.0691 74.7983 22.0334 74.731 21.9948C74.7208 21.9669 74.7361 21.9415 74.7763 21.9197C75.1052 21.9179 75.4324 21.9189 75.7308 21.9104C75.8697 21.9076 75.9871 21.8973 76.0748 21.8801C76.1626 21.863 76.2187 21.8394 76.2393 21.811C76.2501 21.7833 76.2238 21.7518 76.1627 21.7189C76.1016 21.6861 76.0074 21.6529 75.8876 21.6219C75.4199 21.5837 74.9921 21.5832 74.698 21.6206C74.5932 21.6499 74.4248 21.6659 74.215 21.6665C74.0052 21.6671 73.7639 21.6522 73.5229 21.6239C73.2469 21.5913 72.9715 21.5769 72.7462 21.5835C72.5209 21.59 72.3605 21.617 72.2938 21.6596C72.0105 21.643 71.7593 21.6304 71.5115 21.6122C71.2193 21.5892 70.943 21.5825 70.7125 21.5926C70.3438 21.5998 69.9466 21.5956 69.5297 21.5801C68.3281 21.5414 67.1249 21.5056 65.9615 21.4895C65.6537 21.4849 65.3875 21.4973 65.0831 21.4871C64.7786 21.477 64.5378 21.5044 64.1571 21.4491C64.0847 21.4405 64.0117 21.435 63.944 21.433C63.8763 21.431 63.8159 21.4326 63.7673 21.4375C63.0988 21.4813 62.315 21.4874 61.4619 21.4557C60.2935 21.4479 59.0818 21.426 57.9117 21.421C57.5685 21.4253 57.2442 21.4368 56.9422 21.4553C56.7123 21.4666 56.4715 21.4742 56.2211 21.4781C56.0292 21.4816 55.8456 21.4713 55.878 21.5319C55.9104 21.5926 55.6228 21.5546 55.4571 21.5434C54.8876 21.514 54.3056 21.4742 53.7175 21.4244C53.138 21.3703 52.5703 21.3388 52.0482 21.3318C51.6711 21.3277 51.2823 21.3432 50.7974 21.2603C50.8159 21.2297 50.8344 21.1991 50.9399 21.1671C50.5445 21.0792 50.0934 21.0036 49.6239 20.9465C49.1544 20.8894 48.6799 20.8524 48.2398 20.8387L47.6329 20.6723C47.4834 20.6528 47.3309 20.6385 47.1845 20.6305C47.0381 20.6224 46.9009 20.6207 46.7813 20.6255C46.6889 20.6279 46.5762 20.6217 46.464 20.608C46.3518 20.5944 46.2476 20.5742 46.1705 20.5512C46.0553 20.5219 45.9145 20.4966 45.7659 20.4785C45.6172 20.4604 45.4673 20.4503 45.3348 20.4495C44.9178 20.4314 44.4727 20.3896 44.045 20.3284C43.934 20.2926 43.8644 20.2555 43.8449 20.2218C43.8254 20.1881 43.8568 20.1593 43.9351 20.1389C44.0615 20.1028 44.1324 20.0569 44.1436 20.0039C44.1549 19.9508 44.1062 19.8918 44.0005 19.8303C43.9464 19.7926 43.9283 19.7569 43.9474 19.7253C43.9664 19.6938 44.0222 19.6671 44.1113 19.6467C44.444 19.5528 44.355 19.5002 43.8107 19.3444C43.7223 19.3185 43.6157 19.2942 43.4977 19.2731C43.3797 19.2521 43.2529 19.2348 43.1253 19.2222C42.826 19.1969 42.5307 19.178 42.245 19.1659C42.0843 19.1464 41.9194 19.1622 41.7343 19.1546C40.8083 19.1166 40.6728 19.0553 40.3729 18.9233L40.1544 18.828C39.7491 18.7508 39.3058 18.6868 38.8565 18.6404C38.4072 18.594 37.963 18.5664 37.556 18.5597C37.3943 18.5592 37.2083 18.546 37.0266 18.5222C36.4353 18.4493 35.8366 18.3989 35.2699 18.3742C34.9168 18.3603 34.5362 18.3244 34.1738 18.2708C33.8114 18.2172 33.4826 18.1481 33.2269 18.0719C32.9971 18.0033 32.6966 17.9417 32.3671 17.8957C31.9814 17.8488 31.9457 17.7937 32.1611 17.7512C32.3765 17.7087 32.7372 17.6541 33.0574 17.6094C33.1689 17.5942 33.2379 17.5695 33.2569 17.5381C33.2759 17.5067 33.244 17.4697 33.1649 17.4314C33.1141 17.3657 33.1053 17.3035 33.1387 17.246C33.1565 17.2222 33.1442 17.1948 33.1025 17.1658C33.0609 17.1368 32.9908 17.1068 32.8971 17.0779C32.8034 17.0489 32.6882 17.0217 32.5593 16.998C32.4304 16.9743 32.2908 16.9548 32.1499 16.9406C31.5552 16.8683 30.9766 16.7979 30.3702 16.745C30.116 16.7201 29.8622 16.6892 29.6148 16.6532C29.1084 16.5639 28.5666 16.4899 28.021 16.4354C27.762 16.411 27.5089 16.3684 27.3163 16.3168C26.7088 16.1778 26.149 16.0316 25.6471 15.8809C25.5261 15.8341 25.3678 15.7885 25.1821 15.7469C24.9965 15.7053 24.7874 15.6686 24.5681 15.6392C24.3913 15.6176 24.2474 15.5703 24.1111 15.5388C24.0121 15.4658 24.0015 15.3983 24.0804 15.3426C24.1592 15.2869 24.325 15.2449 24.562 15.2204C24.7868 15.191 24.9971 15.1568 25.1914 15.1208C25.4256 15.0916 25.704 15.0741 26.0164 15.0688C26.3862 15.0532 26.6597 15.0084 26.8012 14.9404C25.7887 14.8172 24.8258 14.6403 23.9382 14.6817L23.2639 14.5698C23.2908 14.5253 23.3143 14.4863 23.3361 14.4502C23.4965 14.3843 23.5465 14.3013 23.4821 14.2082C23.429 14.1631 23.4338 14.1221 23.496 14.0893C23.5582 14.0565 23.6756 14.033 23.8364 14.0213C24.7887 13.9013 25.8899 13.8202 26.783 13.684C27.063 13.6585 27.3908 13.6468 27.7525 13.6497C28.1025 13.6415 28.0879 13.58 27.6851 13.5041C27.459 13.4645 27.2286 13.4265 26.9947 13.3903C25.9632 13.3843 25.543 13.566 24.366 13.5154L23.8204 13.2759C23.6729 13.2722 23.5297 13.2707 23.3917 13.2715L21.4181 13.3689C21.2537 13.3737 21.1257 13.3904 21.0487 13.4169C20.9717 13.4434 20.9488 13.4788 20.9825 13.5189C20.9958 13.568 20.9687 13.6131 20.9019 13.6524C20.8589 13.68 20.8864 13.7166 20.9785 13.7543C21.186 13.8393 20.9197 13.8517 20.7516 13.873C20.7086 13.8751 20.659 13.8749 20.6058 13.8724C20.5525 13.8699 20.4966 13.8651 20.4413 13.8584C20.3859 13.8516 20.3323 13.8431 20.2835 13.8332C20.2347 13.8233 20.1917 13.8122 20.1569 13.8007C19.8607 13.7199 19.6015 13.6346 19.3103 13.5454C19.5171 13.4601 19.2738 13.32 19.5964 13.2428C19.6325 13.2274 19.647 13.2086 19.6389 13.1876C19.6308 13.1666 19.6003 13.1438 19.5494 13.1206C19.418 13.0609 19.3554 13.0026 19.368 12.9517C19.3805 12.9008 19.4677 12.8591 19.6208 12.8307L19.6393 12.8001C19.2355 12.6973 19.3425 12.6058 19.1839 12.4969L18.7956 12.4258C17.8293 12.2545 17.8276 12.2573 16.9957 12.2636C16.8281 12.1984 17.0411 12.1885 17.2009 12.181L18.5389 12.1079C19.4137 12.059 20.3139 12.0252 21.2912 12.0067C22.2684 11.9883 23.3579 11.9267 24.368 11.8824C24.4191 11.8789 24.4582 11.8721 24.482 11.8626C24.5058 11.853 24.5136 11.8409 24.5048 11.8273C24.4646 11.8126 24.412 11.7985 24.351 11.7859C24.2899 11.7733 24.2219 11.7626 24.1519 11.7545C23.8304 11.7154 23.5006 11.6903 23.1581 11.6575L22.5195 11.6008L22.323 11.5261C22.1952 11.4807 22.1078 11.4253 21.9377 11.3926C21.7976 11.3683 21.6454 11.3498 21.4971 11.3391C21.3488 11.3285 21.2098 11.326 21.0946 11.3319C20.7751 11.3468 20.486 11.3683 20.1809 11.388C19.8758 11.4076 19.7076 11.4289 19.443 11.4385C18.9055 11.4429 18.386 11.4545 17.8868 11.4732C17.4663 11.5174 17.0773 11.5699 16.7224 11.6302C16.501 11.654 16.294 11.6825 15.9159 11.6515C15.7366 11.6233 15.5819 11.5863 15.4793 11.5471C15.3766 11.5078 15.3327 11.4688 15.3553 11.437C15.3756 11.412 15.433 11.3923 15.5222 11.3796C15.6113 11.367 15.7292 11.3618 15.8648 11.3646C16.2443 11.36 16.5952 11.3446 16.9104 11.3186C17.3493 11.2715 17.8835 11.2513 18.4818 11.2589C18.6848 11.2657 18.8208 11.2404 18.9983 11.2322C19.1758 11.2239 19.3262 11.2034 19.5241 11.2185C20.1389 11.2574 20.4337 11.1978 20.8021 11.159C20.9269 11.1418 21.0041 11.114 21.0255 11.0786C21.0468 11.0433 21.0113 11.0018 20.923 10.9587C20.7529 10.8728 20.5449 10.7865 20.3022 10.701C20.1772 10.659 20.0172 10.6191 19.8345 10.5845C19.6519 10.5498 19.4517 10.5213 19.2495 10.5013C19.1285 10.4487 19.064 10.397 19.0617 10.3509C19.0595 10.3047 19.1196 10.2656 19.2366 10.237C19.5347 10.1717 19.799 10.1053 20.4671 10.1418C20.7812 10.1557 21.0768 10.1584 21.3421 10.1497C21.9307 10.1378 22.6096 10.1639 23.3149 10.2254C23.4974 10.2412 23.6767 10.252 23.8477 10.2574C25.067 10.2952 26.2287 10.3141 27.3938 10.3275C28.011 10.3339 28.6332 10.3319 29.2775 10.3506C30.7885 10.391 32.164 10.3702 33.6224 10.3834C34.3862 10.3902 35.0699 10.3629 35.6376 10.3031C35.7482 10.283 35.8431 10.2596 35.9214 10.2331C35.5452 10.1635 35.132 10.1085 34.7213 10.0731C34.3106 10.0378 33.9163 10.0235 33.5761 10.0314C33.389 10.0509 33.1472 10.0544 32.8777 10.0417C32.6082 10.0289 32.3216 10.0004 32.0497 9.9592L32.8401 9.93591C33.3642 9.92501 33.9011 9.92164 34.4108 9.90601C35.2206 9.8791 35.9712 9.83603 36.8098 9.8186C37.4868 9.80257 38.0927 9.7616 38.6083 9.69698C38.9809 9.64984 39.4063 9.61642 39.8761 9.59738C40.21 9.58724 40.21 9.58724 40.4235 9.49078C40.2541 9.42837 40.0351 9.41965 39.8288 9.41844C38.592 9.37918 37.415 9.3723 36.3218 9.39794C35.7702 9.40021 35.2809 9.42667 34.8773 9.47603C34.7785 9.49686 34.5256 9.487 34.3227 9.48023C33.6865 9.46994 33.0785 9.47293 32.5059 9.48916C31.7142 9.51622 30.8325 9.5098 29.895 9.47017C29.7173 9.42167 29.9219 9.42566 29.932 9.40897C30.6581 9.37785 31.3698 9.342 32.1103 9.31563C32.3127 9.30623 32.5291 9.30157 32.757 9.30172C33.6078 9.31808 34.3168 9.27277 34.7846 9.17214C34.8081 9.1332 35.1159 9.13779 35.2519 9.11253C35.3188 9.09066 35.3634 9.06492 35.3843 9.03606C35.1861 8.96418 34.9621 8.96381 34.7896 8.96373C34.2891 8.97175 33.8077 8.98696 33.3475 9.00927C32.9198 9.03051 32.4463 9.03619 31.9399 9.02616C31.5662 9.01653 31.2467 9.03142 30.8696 9.02735C30.665 9.01879 30.4533 9.00506 30.2387 8.98644C30.4776 8.93634 30.8024 8.90553 31.1903 8.89616C31.4844 8.86624 31.8521 8.85723 31.8991 8.77934C31.7602 8.72362 31.6055 8.72272 31.4812 8.7285C31.2226 8.72829 30.9727 8.7318 30.733 8.73902C30.2248 8.75485 29.6745 8.75507 29.0937 8.73967C28.7879 8.73391 28.4977 8.73565 28.228 8.74484C27.6168 8.75709 27.031 8.78437 26.4714 8.79692C25.325 8.80976 24.2795 8.85576 23.1779 8.88003C22.9328 8.88604 22.713 8.90708 22.3899 8.87076C22.0668 8.83444 22.0524 8.82971 22.0143 8.80715C21.9239 8.76952 21.8965 8.73304 21.9378 8.70528C22.0018 8.67935 22.1267 8.66491 22.2901 8.66453C23.2748 8.62328 24.2087 8.56534 25.0861 8.49106C25.4722 8.47618 25.8105 8.44583 26.0892 8.40107C26.3103 8.37025 26.5725 8.34983 26.8676 8.34048C27.2968 8.3182 27.7443 8.30187 28.2083 8.29156C28.4241 8.28602 28.6077 8.26951 28.7481 8.243C28.8885 8.2165 28.983 8.18053 29.0259 8.13722L28.4572 7.99339C28.3679 7.98669 28.2792 7.98089 28.1917 7.97602L23.4711 8.07962L23.0036 8.08247C22.4913 8.07389 22.366 8.05269 21.88 7.88608C22.9892 7.84687 23.8612 7.73262 24.409 7.5547C24.2773 7.53557 24.1423 7.51915 24.0072 7.50583C23.1208 7.46374 22.2828 7.45256 21.5256 7.47271C21.0759 7.47473 20.6134 7.46924 20.1492 7.46652C20.285 7.3845 20.805 7.40894 21.144 7.39045C21.9538 7.36151 22.67 7.30175 23.2695 7.21305C23.4762 7.17847 23.7348 7.15636 24.0335 7.14772C24.3324 7.14475 24.582 7.12382 24.7607 7.08675C24.9395 7.04968 25.0418 6.9976 25.0589 6.93504C25.087 6.8784 25.1477 6.82576 25.24 6.77791C25.0767 6.71003 24.8175 6.64502 24.5109 6.59509C24.2044 6.54515 23.8716 6.51373 23.575 6.5067C22.9418 6.47875 22.285 6.43299 21.6214 6.37059C21.2908 6.33912 20.9667 6.32105 20.67 6.31757C20.4084 6.31489 20.111 6.29216 19.8233 6.25284C19.5355 6.21353 19.2732 6.15979 19.0763 6.09981C18.8105 6.02568 18.5624 5.95071 18.3143 5.87575C18.0663 5.80079 17.7785 5.70606 17.4889 5.6141C17.2336 5.59972 16.985 5.59048 16.7465 5.5865C16.5609 5.58987 16.3444 5.57984 16.1224 5.55761C15.9004 5.53537 15.6823 5.50185 15.4938 5.46099C15.6044 5.4207 15.7294 5.38514 15.861 5.33845C15.6803 5.2768 15.5492 5.21393 15.4759 5.15367C15.4025 5.09341 15.3883 5.03702 15.4342 4.98794C15.4611 4.94343 15.2646 4.86877 15.1967 4.80975C15.1093 4.75887 15.0929 4.71139 15.1496 4.67353C15.2063 4.63566 15.3335 4.6092 15.5145 4.59759C15.739 4.57616 15.9218 4.54389 16.0552 4.50211C16.0993 4.49126 16.1218 4.47641 16.1205 4.45891C16.1193 4.4414 16.0943 4.42181 16.048 4.40191C16.0017 4.38202 15.9354 4.36246 15.8553 4.34502C15.7751 4.32759 15.6837 4.31284 15.5893 4.30211C15.3002 4.27171 15.0131 4.25201 14.7445 4.24413C14.2817 4.22964 13.8386 4.22054 13.4153 4.21682C12.9472 4.21123 12.4263 4.17672 11.9057 4.1168C11.4396 4.06011 11.0218 4.00928 10.7939 3.90093C10.566 3.79259 10.2016 3.79604 9.92139 3.71717C10.0788 3.64607 10.3585 3.59667 10.7324 3.57396C10.9771 3.56585 11.1813 3.54457 11.332 3.51148C11.4827 3.47839 11.5765 3.43422 11.6074 3.3818L10.7568 3.16188C10.0774 3.05834 9.70157 3.13803 8.96754 3.09651L9.72386 3.01533C9.73905 3.0073 9.74474 2.99788 9.74065 2.98751C9.66721 2.82331 9.55038 2.78819 8.77724 2.69713L8.34331 2.64435L7.65652 2.58171C7.54652 2.54806 7.47046 2.51297 7.43589 2.47994C7.40132 2.44692 7.40948 2.41712 7.45955 2.39352C7.56017 2.35385 7.59077 2.30314 7.54852 2.24609C7.48191 2.20829 7.47642 2.17345 7.53298 2.1476C7.58954 2.12176 7.7046 2.10654 7.85818 2.1046C7.98076 2.10159 7.98986 2.05791 8.05654 2.03318C8.1228 1.99908 8.2362 1.97292 8.38902 1.95648C8.54184 1.94003 8.73046 1.93367 8.94211 1.93785C9.56613 1.94126 10.1523 1.92847 10.6903 1.89969L10.5939 1.88796C11.1546 1.91322 11.6789 1.91629 12.1411 1.897C12.6043 1.87272 13.1987 1.8883 13.6907 1.87349C14.0912 1.87689 14.3962 1.84329 14.5408 1.77983C14.6809 1.71923 15.1899 1.73337 15.5797 1.74496C15.8106 1.75245 16.0338 1.75562 16.2468 1.75444C16.5328 1.74073 16.8903 1.75366 17.2598 1.79107C17.3707 1.80257 17.4799 1.80866 17.5769 1.80875C18.5163 1.82448 19.454 1.84298 20.3806 1.85119C20.5945 1.84646 20.8453 1.85729 21.1036 1.8824C21.2122 1.8933 21.3178 1.89782 21.4063 1.89534C22.8705 1.8704 24.5228 1.93403 25.9582 1.89962C26.1322 1.89149 26.3248 1.8898 26.5306 1.89459C26.993 1.91481 27.3946 1.9018 27.6743 1.85754C27.8252 1.834 28.0187 1.82103 28.2425 1.81946C28.4662 1.81788 28.7152 1.82774 28.9737 1.84839C29.4038 1.87574 29.8014 1.87871 30.1244 1.85698C30.7541 1.8369 31.4164 1.82865 32.106 1.83227C32.3173 1.83579 32.503 1.82798 32.6488 1.80947C32.7946 1.79096 32.8965 1.76223 32.9467 1.72552C32.7773 1.66312 32.5922 1.65552 32.4164 1.66101C31.7349 1.64679 31.055 1.62979 30.3863 1.62309C29.7877 1.60394 29.2133 1.59809 28.6716 1.60562C28.4027 1.6141 28.0671 1.59475 27.738 1.55177C27.3348 1.49734 26.9195 1.4703 26.576 1.47612C26.3214 1.47756 26.0527 1.47287 25.7736 1.46212C25.5951 1.44915 25.412 1.42689 25.2433 1.39761C25.1763 1.38489 25.1034 1.37419 25.0293 1.36621C24.9552 1.35823 24.8815 1.35313 24.8128 1.35124C24.7441 1.34935 24.682 1.35071 24.6305 1.35523C24.579 1.35976 24.5392 1.36735 24.5136 1.37752C24.2553 1.46255 23.6776 1.41916 23.183 1.40975C22.4417 1.26584 21.8901 1.35102 21.1973 1.26974C21.1425 1.26435 21.0885 1.26108 21.0387 1.26015C20.9888 1.25922 20.9441 1.26064 20.9073 1.26431C19.5666 1.31324 18.0041 1.27247 16.5965 1.28936C16.4412 1.29183 16.261 1.28336 16.0764 1.26492C14.8697 1.14285 13.7095 1.10819 12.8227 1.16773C12.7148 1.17309 12.592 1.17332 12.46 1.1684C11.8537 1.11989 11.2738 1.10055 10.7689 1.11199C9.97753 1.1083 9.21666 1.11129 8.41259 1.10008C7.85832 1.08412 7.37208 1.10117 7.00258 1.14952C6.99083 1.16899 6.7447 1.14801 6.55615 1.14598C6.44772 1.09696 6.35371 1.05268 6.24192 1.00922C6.14199 0.955455 5.99228 0.901047 5.80301 0.84969C5.61374 0.798332 5.38934 0.751226 5.14492 0.711552C4.72705 0.660721 4.68526 0.58696 4.97766 0.559822C5.73134 0.47004 6.67904 0.433293 7.7511 0.452278C8.64728 0.453795 9.55956 0.457272 10.4684 0.466308C10.9986 0.47406 11.5574 0.491279 12.0732 0.494294C12.2472 0.500918 12.426 0.51068 12.6076 0.523476C12.8305 0.542028 13.047 0.552136 13.2452 0.553258C13.8819 0.537634 14.5925 0.551246 15.343 0.593441C15.6179 0.602642 15.8819 0.605743 16.131 0.602698C16.7203 0.591244 17.3592 0.599672 18.0308 0.627761C18.4482 0.6436 18.8529 0.651882 19.2407 0.652519C19.3777 0.65425 19.4893 0.640945 19.6212 0.651021C20.7825 0.756447 21.6047 0.680298 22.6499 0.720837C23.1578 0.732141 23.6431 0.732174 24.099 0.720934C24.9885 0.721478 25.9029 0.733036 26.8384 0.755562C28.0754 0.792571 29.2218 0.77973 30.4029 0.79501C30.6361 0.798221 30.8613 0.797674 31.0767 0.793369C32.125 0.76493 33.2635 0.770962 34.4645 0.811315C34.7373 0.817145 34.9822 0.810016 35.184 0.79038C35.3859 0.770745 35.5402 0.739024 35.6375 0.6972C35.6786 0.668497 35.652 0.631215 35.5626 0.592546C35.4144 0.543163 35.247 0.494777 35.0632 0.448187L28.3775 0.291848C28.0967 0.283684 27.8229 0.27929 27.5574 0.278682C26.7766 0.277323 25.9718 0.26516 25.1469 0.242255C24.3318 0.22074 23.5531 0.22456 22.7635 0.218082C22.5309 0.215913 22.2921 0.210792 22.0482 0.202737C20.3994 0.138986 18.7916 0.100047 17.2362 0.0862014C16.5818 0.0842362 15.8749 0.0549777 15.2078 0.0454945C14.5407 0.0360113 13.6284 0.0325391 12.8371 0.0288433L10.387 0.0294103C9.90512 0.0275236 9.43591 0.0331527 8.96839 0.036003C8.40105 -0.167378 8.20554 -0.215048 7.44847 -0.304153C7.18947 -0.337021 6.92603 -0.356636 6.68903 -0.3607C5.9375 -0.344622 4.99453 -0.411549 4.28186 -0.402689C3.85182 -0.407059 3.48692 -0.384466 3.2245 -0.337221C2.99671 -0.300142 2.73622 -0.270803 2.44706 -0.249646C1.65495 -0.423633 1.58515 -0.536634 2.18099 -0.580607C2.34243 -0.59083 2.56479 -0.587668 2.68136 -0.609319C2.74825 -0.622505 2.83963 -0.630045 2.94821 -0.631349C3.05679 -0.632653 3.17958 -0.627685 3.30694 -0.61683C3.70889 -0.588359 4.08563 -0.581662 4.39936 -0.597415C4.69462 -0.618263 5.05654 -0.617431 5.45023 -0.594995C5.73953 -0.559805 5.99381 -0.609495 6.244 -0.623851C6.49419 -0.638207 6.6995 -0.663996 7.09027 -0.62542C7.16182 -0.61774 7.23286 -0.613128 7.29794 -0.611941C7.36301 -0.610754 7.42039 -0.613023 7.46568 -0.618572C7.88537 -0.643417 8.3862 -0.640806 8.92749 -0.610955C9.75768 -0.58158 10.5366 -0.580479 11.2373 -0.607688C11.6567 -0.631496 12.0143 -0.673716 12.2961 -0.732701C12.3729 -0.752429 12.4869 -0.764259 12.6273 -0.767056C13.3322 -0.754748 14.0977 -0.70843 14.8743 -0.631088C15.1668 -0.600098 15.459 -0.575585 15.7445 -0.558071C16.3314 -0.519165 16.8991 -0.497364 17.4306 -0.493313C18.2031 -0.492671 19.0073 -0.4777 19.8361 -0.44854C20.3477 -0.432303 20.8406 -0.42631 21.309 -0.430627C21.7904 -0.432662 22.3044 -0.420277 22.8394 -0.39376C23.3714 -0.372151 23.8403 -0.384601 24.1894 -0.429605C24.3044 -0.453856 24.397 -0.482652 24.4655 -0.515458C23.6865 -0.62221 22.8809 -0.676463 22.2109 -0.667292C21.9563 -0.674363 21.745 -0.667225 21.4768 -0.708805L21.4684 -0.694896C21.4151 -0.685872 21.3345 -0.683742 21.2422 -0.688915C21.1499 -0.694088 21.0522 -0.7062 20.9678 -0.722945C20.9997 -0.775799 21.0299 -0.825871 21.0517 -0.862034C21.5623 -0.855654 22.058 -0.856171 22.5364 -0.863588C22.9396 -0.874258 23.487 -0.780798 23.836 -0.815978C24.5168 -0.771985 24.9502 -0.832727 25.5607 -0.8152C26.1712 -0.797673 26.8436 -0.73977 27.4541 -0.722243C27.9868 -0.712625 28.504 -0.710534 29.003 -0.715981C29.1752 -0.723626 29.3737 -0.721833 29.5863 -0.71071C29.8853 -0.689783 30.1633 -0.686276 30.3886 -0.700593C30.6139 -0.714911 30.7772 -0.746476 30.86 -0.791666C30.7821 -0.833995 30.677 -0.888576 30.5559 -0.945116C30.7788 -0.991574 31.1172 -1.01114 31.5211 -1.00089L32.0918 -1.00314C32.243 -1.00191 32.3586 -1.01447 32.4147 -1.03822C32.4708 -1.06196 32.463 -1.09508 32.3931 -1.13072C31.3109 -1.31012 31.2711 -1.3299 30.4769 -1.2145L29.4224 -1.26813L29.4401 -1.26895ZM175.116 18.3115L175.098 18.3421L175.118 18.3087L175.295 18.3302L175.306 18.3108L175.116 18.3115ZM149.448 4.89953C149.198 4.86615 148.946 4.83545 148.692 4.80764C148.626 4.80333 148.564 4.80236 148.511 4.8048C148.459 4.80725 148.417 4.81305 148.391 4.8217C148.37 4.85508 148.512 4.87824 148.64 4.89388C148.802 4.91493 148.968 4.92831 149.12 4.93263C149.272 4.93695 149.405 4.93207 149.505 4.91848L149.651 4.9063L149.448 4.89953ZM20.7394 13.0355C20.9039 13.0411 21.0599 13.042 21.2036 13.0382C21.8409 13.0112 22.4511 12.972 23.1046 12.9469C23.929 12.8834 24.8764 12.8575 25.9111 12.8703C26.3153 12.8765 26.6569 12.8559 26.8958 12.8109C27.0389 12.7868 27.2235 12.7726 27.4384 12.7694L30.1739 12.6961C30.343 12.6809 30.4892 12.6595 30.609 12.6326C30.368 12.6032 30.2073 12.5837 30.1108 12.572C29.9107 12.5687 29.7388 12.5776 29.6121 12.5979C29.4761 12.6323 29.2462 12.6459 28.968 12.636C28.6872 12.6278 28.4134 12.6234 28.1479 12.6228C27.6466 12.6246 27.1419 12.6318 26.6388 12.6363C26.4431 12.732 25.8655 12.6886 25.3709 12.6792L24.9887 12.6835C23.7397 12.733 22.5465 12.8012 21.4151 12.8877C21.1964 12.9024 21.008 12.9257 20.8557 12.9571C20.7984 12.9815 20.78 13.012 20.802 13.0461L20.7217 13.0363L20.7394 13.0355ZM76.5173 22.1793C76.8204 22.1858 77.1359 22.1992 77.4593 22.2192C77.7085 22.2397 77.9516 22.2521 78.179 22.256C79.453 22.2774 80.7806 22.3269 82.1439 22.4039C82.3222 22.4155 82.4935 22.4212 82.6513 22.4208L83.7672 22.4013C84.1188 22.3903 84.1255 22.3792 83.8696 22.2316C83.6571 22.2029 83.4423 22.1768 83.2267 22.1534C83.0981 22.1377 82.8892 22.1123 82.8403 22.1362C82.5421 22.2015 81.9983 22.1592 81.5409 22.1454C80.2167 22.1097 78.8511 22.0571 77.5143 22.0139C77.2316 22.0033 76.9579 21.998 76.6958 21.9979C76.5332 21.9957 76.3849 21.9999 76.2571 22.0103C76.2197 22.0113 76.1885 22.0144 76.1654 22.0193C76.1423 22.0242 76.1278 22.0309 76.123 22.0388C76.1183 22.0466 76.1233 22.0556 76.1377 22.0651C76.1522 22.0746 76.1757 22.0843 76.2067 22.0937C76.3161 22.1266 76.4425 22.1581 76.5816 22.1871L76.5173 22.1793ZM86.2173 0.758417L87.5217 0.74092C87.6781 0.739042 87.8108 0.719347 87.9782 0.72777C88.8714 0.754465 89.6984 0.74703 90.424 0.705779C90.6711 0.688946 90.9601 0.68558 91.2753 0.695867C92.2403 0.726351 93.1506 0.727604 93.9816 0.699593C94.5187 0.693972 95.0213 0.675091 95.482 0.64323C95.5175 0.635834 95.5396 0.625793 95.5468 0.613791C95.5541 0.60179 95.5463 0.58811 95.524 0.573685C95.5182 0.564572 95.5024 0.554769 95.4777 0.544951C95.4531 0.535135 95.42 0.525533 95.381 0.516814C95.342 0.508095 95.2979 0.500466 95.2517 0.494447C95.2056 0.48843 95.1584 0.484163 95.1135 0.481949C94.5315 0.438824 93.979 0.4238 93.5011 0.438097C93.058 0.455204 92.5809 0.46021 92.0774 0.453036C91.5955 0.451149 91.2686 0.506931 90.6732 0.464367C90.4213 0.450352 90.1992 0.454966 90.0442 0.477437C89.7323 0.514685 89.2971 0.516757 88.8158 0.483284C88.5279 0.466345 88.2527 0.459079 88.0007 0.461767C87.3895 0.474013 86.8054 0.498514 86.2391 0.522188C86.0606 0.527664 85.8694 0.52842 85.6684 0.524437L82.8326 0.478081C82.1511 0.463861 81.4713 0.446858 80.8025 0.440157C80.2555 0.425605 79.7466 0.430163 79.2934 0.453668C78.8103 0.478373 78.2835 0.488403 77.7227 0.483568C76.852 0.497088 75.9863 0.502259 75.0385 0.50044C74.434 0.501559 73.8152 0.497943 73.1836 0.486806C72.864 0.472473 72.5928 0.484146 72.422 0.519577C72.3181 0.548746 72.0737 0.524982 71.8707 0.518212C70.7883 0.452965 69.7732 0.437507 68.8963 0.472909C68.7843 0.478679 68.6614 0.480767 68.5302 0.479139C67.6856 0.477923 66.8105 0.470016 65.9997 0.469928C65.7863 0.472679 65.5854 0.480227 65.3996 0.492476C65.4195 0.51246 65.4762 0.53412 65.558 0.552963C65.6398 0.571806 65.7403 0.586388 65.8388 0.593682C66.6056 0.649513 67.346 0.679006 68.0289 0.680925C69.1656 0.673813 70.3562 0.689803 71.5884 0.728724C72.5446 0.767963 73.4164 0.759702 74.139 0.704554C74.7039 0.663405 75.4387 0.678888 76.2173 0.748342C76.5505 0.781513 76.8739 0.794778 77.1432 0.786323C77.4025 0.77523 77.7 0.77792 78.0183 0.794232C78.6894 0.825252 79.3348 0.839641 79.9419 0.837118C80.5354 0.825699 81.089 0.794505 81.6985 0.785041C82.308 0.775577 83.2363 0.781001 83.9879 0.764922C84.7394 0.748844 85.4825 0.746678 86.2173 0.758417ZM32.1659 -0.868706C32.2348 -0.782695 32.4785 -0.729158 32.7407 -0.706223C33.6447 -0.604384 34.5383 -0.561048 35.2717 -0.583488C35.6678 -0.614788 36.1959 -0.602739 36.7522 -0.549709C37.3999 -0.494584 38.0053 -0.485441 38.4618 -0.523895C38.5736 -0.530614 38.6592 -0.544817 38.711 -0.565241C38.7211 -0.581932 38.7395 -0.612531 38.7429 -0.618094C38.6949 -0.632204 38.6361 -0.645277 38.571 -0.656306C38.5059 -0.667335 38.4362 -0.676024 38.3673 -0.681704L35.3731 -0.780163L34.8513 -0.80183C33.8983 -0.858593 32.9902 -0.881207 32.1659 -0.868706ZM38.0554 0.492665C38.5227 0.633116 38.5243 0.630328 38.7638 0.662435C39.9187 0.795798 41.0729 0.867789 42.0889 0.869843C42.3148 0.869436 42.5064 0.855879 42.6477 0.83031C42.7203 0.826845 42.7666 0.815834 42.7763 0.79968C42.7861 0.783526 42.7585 0.763538 42.6997 0.744075L42.3281 0.645128C41.6533 0.602291 40.9881 0.568254 40.3366 0.543223C39.5781 0.513664 38.906 0.512523 38.1197 0.500481L38.0554 0.492665ZM76.4613 21.5574C76.8967 21.7507 76.8984 21.7479 77.6274 21.7977C78.1355 21.8331 78.6282 21.8538 79.0912 21.8593C79.6568 21.8654 80.2368 21.8763 80.8008 21.8852C80.9385 21.8913 81.0552 21.8862 81.1283 21.8708C81.2013 21.8554 81.2255 21.8308 81.1961 21.8019C81.1221 21.7704 81.0063 21.74 80.8676 21.7155C80.7289 21.691 80.5754 21.674 80.432 21.6671L80.1243 21.6625C79.7506 21.6529 79.3624 21.6385 79.0014 21.6364C78.7671 21.6444 78.4958 21.6382 78.2085 21.6183C77.9212 21.5984 77.6258 21.5653 77.3455 21.5216L76.4613 21.5574ZM40.3805 -0.615962C40.4968 -0.582485 40.6283 -0.550422 40.7715 -0.520627C41.3261 -0.43804 41.9131 -0.391135 42.4173 -0.389105C42.6558 -0.383989 42.8738 -0.402255 43.1166 -0.375711C43.552 -0.340241 43.9739 -0.321347 44.3597 -0.320052C44.3597 -0.320052 44.4678 -0.327797 44.5033 -0.329451L44.5772 -0.451849C44.3946 -0.480204 44.2042 -0.503369 44.0147 -0.520276C43.3787 -0.55284 42.7539 -0.575103 42.1307 -0.600149C41.5075 -0.625195 41.2902 -0.636699 40.8826 -0.647456C40.7008 -0.641543 40.5326 -0.630993 40.3805 -0.615962ZM26.6095 14.6005L27.4417 14.851C27.711 14.8728 27.9625 14.8768 28.1581 14.8623C28.3537 14.8478 28.4826 14.8157 28.5251 14.7708C28.5937 14.7498 28.6005 14.7188 28.5443 14.6841C28.488 14.6494 28.373 14.6138 28.2233 14.5848C28.0793 14.5504 27.9149 14.5196 27.7403 14.4943C27.5657 14.4689 27.3845 14.4496 27.2082 14.4375L26.6095 14.6005ZM33.5383 13.3532C32.994 13.3107 32.4734 13.2933 32.0163 13.3024C31.7283 13.3273 31.338 13.3193 30.9256 13.2802C30.1755 13.2023 29.4524 13.1807 28.9089 13.22C28.9089 13.22 28.8887 13.2534 28.7966 13.2631C28.7045 13.2728 29.0699 13.2963 29.1502 13.3061C29.7396 13.33 30.3323 13.3484 30.8447 13.357C31.1628 13.3566 31.4993 13.3645 31.8484 13.3805C32.3286 13.4052 32.7841 13.4132 33.197 13.4042C33.197 13.4042 33.3567 13.3968 33.5366 13.3559L33.5383 13.3532ZM91.6667 0.30454C91.4067 0.257359 91.1248 0.219012 90.8421 0.19238C90.5594 0.165748 90.2832 0.151521 90.0343 0.150764C89.8437 0.148302 89.6895 0.16076 89.596 0.186166C89.5026 0.211573 89.4753 0.24848 89.5184 0.291049C89.7112 0.31451 89.9684 0.345789 90.113 0.363384C90.6144 0.361663 91.0421 0.33904 91.6667 0.30454ZM140.333 4.28048C140.124 4.2425 139.894 4.21346 139.67 4.19668C139.445 4.1799 139.234 4.17605 139.062 4.18558C138.973 4.18971 139.033 4.23287 139.018 4.25791C139.008 4.26358 139.008 4.27064 139.018 4.27834C139.028 4.28605 139.048 4.29412 139.075 4.3017C139.103 4.30928 139.136 4.31609 139.173 4.32143C139.21 4.32677 139.248 4.33043 139.284 4.33204C139.51 4.3484 139.724 4.35327 139.906 4.34621C140.088 4.33916 140.232 4.3204 140.326 4.2916L140.333 4.28048ZM143.594 4.82343C143.561 4.80101 143.493 4.77766 143.4 4.75763C143.308 4.73761 143.198 4.72226 143.09 4.71441C142.9 4.71335 142.727 4.71957 142.579 4.73282C142.417 4.74304 142.533 4.80793 142.752 4.84642C142.844 4.86188 142.943 4.87393 143.04 4.88163C143.137 4.88932 143.23 4.89245 143.312 4.89076C143.393 4.88906 143.461 4.8826 143.509 4.87188C143.557 4.86115 143.585 4.84647 143.59 4.82899L143.594 4.82343ZM48.8453 -0.377578C48.3588 -0.457656 47.9844 -0.437511 47.5725 -0.469696C47.1607 -0.501881 47.0592 -0.505266 47.1144 -0.453765C47.1695 -0.402263 47.4519 -0.412707 47.6287 -0.391202C47.8676 -0.362666 48.1079 -0.346281 48.3227 -0.343874C48.5376 -0.341468 48.7185 -0.353137 48.8453 -0.377578ZM150.218 13.1718C149.96 13.1538 149.708 13.1411 149.465 13.1339C149.433 13.1413 149.413 13.1511 149.406 13.1626C149.399 13.174 149.405 13.187 149.424 13.2007C149.424 13.2007 149.589 13.2416 149.686 13.2534C150.041 13.2936 150.059 13.236 150.218 13.1718ZM186.637 20.6326C186.812 20.6867 186.893 20.7234 187.033 20.7494C187.097 20.7584 187.163 20.7649 187.227 20.7685C187.29 20.7721 187.349 20.7727 187.4 20.7701C187.461 20.7546 187.475 20.7307 187.44 20.7034C187.44 20.7034 187.262 20.6549 187.195 20.6526C187.002 20.6412 186.814 20.6345 186.637 20.6326ZM40.5647 -0.835421C40.1951 -0.880387 39.8415 -0.923401 39.5855 -0.870927C40.1725 -0.814455 40.1725 -0.81445 40.5647 -0.835421ZM46.5519 -0.322126C46.1786 -0.418292 45.9596 -0.427019 45.7804 -0.41597C45.7423 -0.413187 45.7171 -0.406984 45.7086 -0.398304C45.7001 -0.389623 45.7088 -0.378935 45.7333 -0.367857C45.7578 -0.356778 45.7968 -0.345914 45.8444 -0.336905C45.8921 -0.327896 45.9457 -0.321233 45.9973 -0.317926C46.1919 -0.315157 46.3776 -0.316562 46.5519 -0.322126ZM65.7631 -0.281462C65.7715 -0.29537 65.7815 -0.312061 65.6851 -0.323791C65.6599 -0.329746 65.6302 -0.334867 65.5992 -0.338641C65.5682 -0.342416 65.5368 -0.34471 65.5083 -0.345294C65.5083 -0.345294 65.4983 -0.328602 65.4916 -0.317475L65.7631 -0.281462ZM79.1038 22.8104L78.8891 22.8231L78.9856 22.8348L79.2401 22.8419L79.1038 22.8104ZM154.697 4.60639C154.616 4.59662 154.536 4.58684 154.524 4.60631C154.507 4.60933 154.497 4.61368 154.494 4.61901C154.49 4.62433 154.494 4.63047 154.506 4.63691C154.506 4.63691 154.618 4.6506 154.666 4.65647L154.697 4.60639ZM142.181 4.76213C142.128 4.76101 142.081 4.76232 142.041 4.76597L142.031 4.78266L142.192 4.80221L142.181 4.76213ZM33.1138 8.73898C33.0517 8.72884 32.9859 8.72084 32.921 8.71552L32.8406 8.70574C32.8406 8.70574 32.9269 8.73416 32.9751 8.74003C33.0234 8.74589 33.0622 8.73868 33.1138 8.73898Z" fill="#FEBD02"/>
</g>
</svg>
